<svg xmlns="http://www.w3.org/2000/svg" viewBox="0 0 710.59 361.13"><title>highway_1</title><g id="Layer_2" data-name="Layer 2"><g id="Layer_1-2" data-name="Layer 1"><path d="M701.85,320,508.22,7.06S504.85,0,499.6,0H466.52c-11.71,0-3.33,20.05-3.33,20.05s2.87,8.1,7.7,21.69a4.79,4.79,0,0,1-1.19,1.33c-2.19,1.58-4.3,2.16-6.49,3.26s-4.49-4.81-4.49-4.81.92,3.5,2,7.84l-9.58-31.81S445.19,0,438.52,0h-58s-10.78,1.64-10,10.86,28,329.22,28,329.22S403.85,361,419.19,361h110c24.66,0,17.66-25.91,17.66-25.91l-4.19-13.91a11.53,11.53,0,0,1,7-5.73l7.37-1.77c3-.72,8.38,2.13,12.09,4.45l5.43,15.29C585.74,365,607.19,361,607.19,361h83.33C727.69,361,701.85,320,701.85,320Zm-181.1-138a9.76,9.76,0,0,1-2.91,4.08c-3.38,2.45-6.65,3.33-10,5-2.2,1.11-4.47-2.38-5.79-4.94l-17.76-58.95a7.42,7.42,0,0,1,4-2.94l4.73-1.14c2-.47,5.46,1.42,7.85,2.92C507.26,144.11,514,163.12,520.75,182.05ZM468.13,57l3.33-.8c1.3-.32,3.56.84,5.22,1.86l15.75,44.32a7.19,7.19,0,0,1-1.91,2.23c-3.1,2.25-6.11,3.06-9.22,4.62-.92.47-1.87,0-2.73-.78L464.43,61.5A5.16,5.16,0,0,1,468.13,57Zm85,227.7c-4.83,3.5-9.51,4.76-14.35,7.19-2,1-4.1-.68-5.82-3l-22.9-76a8,8,0,0,1,5.37-5.25l5.15-1.23c2.74-.66,8.26,2.91,10.39,4.38L556,281.31A11.15,11.15,0,0,1,553.11,284.68Z"/><path d="M20.07,361h83.34s21.44,4,32.66-27.58c1.07-3,2.93-8.25,5.44-15.29,3.71-2.32,9.08-5.17,12.08-4.45l7.37,1.77a11.51,11.51,0,0,1,7,5.73l-4.19,13.91s-7,25.91,17.67,25.91h110c15.33,0,20.66-20.89,20.66-20.89s27.22-320,28-329.22S330.07,0,330.07,0h-58c-6.66,0-12.66,17.55-12.66,17.55l-9.59,31.81,2.06-7.84s-2.3,5.9-4.49,4.81-4.31-1.68-6.5-3.26a5,5,0,0,1-1.19-1.33l7.71-21.69s8.37-20-3.34-20H211c-5.25,0-8.62,7.06-8.62,7.06L8.74,320S-17.09,361,20.07,361ZM209.72,126.11c2.39-1.5,5.9-3.39,7.86-2.92l4.73,1.14a7.46,7.46,0,0,1,4,2.94l-17.76,59c-1.32,2.56-3.6,6.05-5.8,4.94-3.39-1.7-6.66-2.58-10-5a9.85,9.85,0,0,1-2.91-4.08C196.57,163.12,203.33,144.11,209.72,126.11ZM246.16,61.5,232,108.43c-.86.82-1.8,1.25-2.73.78-3.11-1.56-6.12-2.37-9.22-4.62a7.19,7.19,0,0,1-1.91-2.23L233.91,58c1.66-1,3.93-2.18,5.22-1.86l3.34.8A5.16,5.16,0,0,1,246.16,61.5ZM154.58,281.31l25.06-70.54c2.13-1.47,7.66-5,10.39-4.38l5.15,1.23a8,8,0,0,1,5.37,5.25l-22.89,76c-1.73,2.32-3.79,4-5.82,3-4.85-2.43-9.53-3.69-14.35-7.19A11,11,0,0,1,154.58,281.31Z"/></g></g></svg>